HIERARCHY
ROOT Hips
{
	OFFSET -0.179506 -22.333345 2.821913
	CHANNELS 6 Xposition Yposition Zposition Zrotation Yrotation Xrotation 
	JOINT LeftUpLeg
	{
		OFFSET 6.951974 -9.140623 -0.681533
		CHANNELS 3 Zrotation Yrotation Xrotation
		JOINT LeftLeg
		{
			OFFSET 3.427654 -37.519855 -0.449580
			CHANNELS 3 Zrotation Yrotation Xrotation
			JOINT LeftFoot
			{
				OFFSET -1.359570 -39.796059 -4.369333
				CHANNELS 3 Zrotation Yrotation Xrotation
				JOINT LeftToe
				{
					OFFSET 2.635814 -5.579078 11.928840
					CHANNELS 3 Zrotation Yrotation Xrotation
					End Site
					{
						OFFSET 0.000000 0.000000 0.000000
					}
				}
			}
		}
	}
	JOINT RightUpLeg
	{
		OFFSET -6.767048 -9.052170 -0.431982
		CHANNELS 3 Zrotation Yrotation Xrotation
		JOINT RightLeg
		{
			OFFSET -3.829005 -38.256897 -0.885003
			CHANNELS 3 Zrotation Yrotation Xrotation
			JOINT RightFoot
			{
				OFFSET 1.577377 -39.841461 -4.231180
				CHANNELS 3 Zrotation Yrotation Xrotation
				JOINT RightToe
				{
					OFFSET -2.537174 -4.814398 12.334795
					CHANNELS 3 Zrotation Yrotation Xrotation
					End Site
					{
						OFFSET 0.000000 0.000000 0.000000
					}
				}
			}
		}
	}
	JOINT Spine
	{
		OFFSET -0.253288 10.896323 -2.669631
		CHANNELS 3 Zrotation Yrotation Xrotation
		JOINT Spine1
		{
			OFFSET 0.548704 13.518043 0.109247
			CHANNELS 3 Zrotation Yrotation Xrotation
			JOINT Spine2
			{
				OFFSET 0.145701 5.292222 2.542457
				CHANNELS 3 Zrotation Yrotation Xrotation
				JOINT Neck
				{
					OFFSET -0.277840 21.387037 -4.285703
					CHANNELS 3 Zrotation Yrotation Xrotation
					JOINT Head
					{
						OFFSET 0.515184 6.496960 5.134897
						CHANNELS 3 Zrotation Yrotation Xrotation
						End Site
						{
							OFFSET 0.000000 0.000000 0.000000
						}
					}
				}
				JOINT LeftShoulder
				{
					OFFSET 7.884473 12.174932 -3.408961
					CHANNELS 3 Zrotation Yrotation Xrotation
					JOINT LeftArm
					{
						OFFSET 9.097692 3.046888 -0.886815
						CHANNELS 3 Zrotation Yrotation Xrotation
						JOINT LeftForeArm
						{
							OFFSET 25.961220 -1.277207 -2.745643
							CHANNELS 3 Zrotation Yrotation Xrotation
							JOINT LeftHand
							{
								OFFSET 24.923361 0.898606 -0.117091
								CHANNELS 3 Zrotation Yrotation Xrotation
								End Site
								{
									OFFSET 0.000000 0.000000 0.000000
								}
							}
						}
					}
				}
				JOINT RightShoulder
				{
					OFFSET -8.175920 11.883285 -3.861528
					CHANNELS 3 Zrotation Yrotation Xrotation
					JOINT RightArm
					{
						OFFSET -9.601238 3.255117 -0.914307
						CHANNELS 3 Zrotation Yrotation Xrotation
						JOINT RightForeArm
						{
							OFFSET -25.374195 -1.332924 -2.140099
							CHANNELS 3 Zrotation Yrotation Xrotation
							JOINT RightHand
							{
								OFFSET -25.529810 0.777228 -0.555919
								CHANNELS 3 Zrotation Yrotation Xrotation
								End Site
								{
									OFFSET 0.000000 0.000000 0.000000
								}
							}
						}
					}
				}
			}
		}
	}
}
MOTION
Frames: 13
Frame Time: 0.033333
-40.498749 105.899391 89.441559 120.275680 -2.639604 88.380668 11.734224 9.423846 -12.019356 -4.071477 11.877561 20.325401 4.319429 13.050420 -12.684738 nan nan nan -15.869761 -6.049036 -8.097888 1.161293 -5.058684 25.903131 3.776958 -0.009438 -22.868697 nan nan nan 2.117472 3.021277 2.590652 -1.001690 -1.413957 7.098464 -2.864225 4.346098 -3.041627 4.645682 25.438650 16.227533 -7.362493 22.141687 14.712948 -15.052676 -1.054156 -6.873369 -47.367546 -8.261464 6.076213 112.623901 -47.848605 -84.928736 35.631892 -9.781438 -15.069581 17.828694 22.246224 3.095287 66.034059 37.957705 31.746038 -158.517986 80.035068 -136.924650 -30.235441 16.613684 -13.199692 
-40.566799 105.889473 89.440086 120.283048 -2.642421 88.518763 11.728857 9.348565 -12.365719 -4.039324 11.991581 20.624473 4.375637 13.003175 -12.728776 nan nan nan -15.910351 -6.020850 -8.317368 1.187471 -5.178864 26.012237 3.879874 0.037437 -22.810704 nan nan nan 2.265648 2.987580 2.541055 -1.084037 -1.442716 7.040234 -2.878291 4.426634 -3.125811 4.401728 25.351394 16.428809 -7.322119 22.335553 14.377450 -15.444779 -1.289686 -6.784784 -47.302172 -8.074809 5.978543 112.940101 -47.694557 -85.408552 34.836171 -9.814196 -14.608208 17.849115 22.346005 3.410222 65.536516 38.168415 31.284082 -160.844121 80.212691 -138.975946 -29.284402 16.702126 -12.122590 
-40.614830 105.874878 89.456238 120.348958 -2.549616 88.513795 11.941009 9.056493 -12.490277 -4.060727 12.496639 20.873066 4.393068 12.811802 -12.876127 nan nan nan -15.935466 -5.874522 -8.284021 1.270900 -5.615063 26.051793 3.667261 0.174035 -22.911507 nan nan nan 2.342107 3.132525 2.851874 -1.105375 -1.346563 6.377740 -2.616122 4.533031 -2.908369 4.707555 24.988483 16.658610 -7.522872 22.373725 14.656154 -15.821351 -1.351276 -8.497471 -52.548938 -11.429824 6.935647 112.280115 -43.015372 -86.251752 27.834338 -7.501042 -15.781581 17.042617 21.787563 2.415549 66.529914 37.401967 32.037833 -159.739829 80.267852 -138.323453 -20.934004 14.555194 -11.335718 
-40.628010 105.852013 89.425140 120.462750 -2.546821 88.554709 12.086026 8.987143 -12.694211 -4.140154 12.965709 21.199931 4.520167 12.411813 -12.999428 nan nan nan -16.063823 -5.971997 -8.329755 1.332027 -5.929439 26.256923 3.473354 0.466448 -23.241793 nan nan nan 2.413411 2.911570 2.878866 -1.198039 -1.479936 7.348704 -2.746745 4.414576 -3.860660 5.218452 25.585195 16.577110 -8.149766 22.154866 14.381943 -16.039869 -0.478140 -8.808777 -51.987596 -11.535365 6.505848 113.960005 -44.794367 -84.969622 17.530515 -8.306181 -5.113466 17.011294 21.350804 2.419268 66.881545 37.871100 32.553006 -163.919626 81.143593 -140.514233 -10.491808 14.356889 -5.186247 
-40.615131 105.825958 89.419319 120.580662 -2.529707 88.509559 12.188771 9.015698 -12.799272 -4.252702 12.985322 21.464647 4.437016 12.320441 -13.162908 nan nan nan -16.093198 -6.070136 -8.223328 1.380242 -6.034536 26.255488 3.456145 0.524593 -23.321412 nan nan nan 2.441554 2.863994 2.886906 -1.207591 -1.513812 7.260617 -2.762938 4.442634 -3.641793 5.195754 25.485373 16.451622 -8.077681 22.131866 14.296047 -16.020785 -0.482536 -8.845670 -52.421355 -11.720784 6.527251 114.177874 -44.798687 -84.930939 17.599908 -8.336959 -5.025543 16.963438 21.316913 2.391285 66.824740 38.005220 32.440122 -165.770843 81.223283 -141.964808 -10.326247 14.316331 -4.346513 
-40.588436 105.856491 89.304497 120.845744 -2.518762 87.721178 12.567703 8.811616 -12.129743 -4.618007 13.065006 21.549819 4.798166 12.286120 -12.850157 nan nan nan -16.493190 -5.727556 -7.164647 1.832669 -6.760427 25.881037 1.664668 0.379634 -23.716979 nan nan nan 1.709569 4.316383 1.666184 -0.560854 -1.295685 13.403575 -1.551308 2.336084 -6.455207 4.487941 25.513523 15.190481 -9.583862 22.274948 13.509996 -16.233197 -3.499875 -5.890334 -53.234906 -10.946468 3.942268 116.556367 -41.624971 -87.458653 11.304936 -7.931056 -5.364759 13.778682 23.140618 -1.678107 68.114847 34.967805 33.193922 -156.555176 75.277733 -144.495122 1.675937 13.855797 -23.251307 
-40.516335 105.904015 89.253990 120.963188 -2.601446 87.436939 12.616194 8.867375 -11.813980 -4.753870 13.057008 21.462628 4.658313 12.184471 -12.769318 nan nan nan -16.682576 -5.950152 -6.789301 1.860774 -6.773597 25.784372 1.511650 0.495702 -23.783505 nan nan nan 1.741388 4.398658 1.835503 -0.607334 -1.331457 13.617694 -1.596821 2.214900 -6.475589 4.696453 25.533722 15.135388 -9.573915 22.163120 13.463192 -16.381457 -3.540581 -5.913518 -53.141921 -11.067389 4.015852 116.533514 -41.744027 -87.406488 11.881103 -8.091522 -5.322860 13.783829 23.316619 -1.909749 68.053307 34.947915 33.262239 -155.795488 75.292477 -143.931206 1.774068 13.779478 -23.015751 
-40.445492 105.921654 89.239082 120.993942 -2.551088 87.378892 12.724290 9.255844 -11.752838 -4.494971 13.573519 21.595798 4.003890 11.127817 -12.909924 nan nan nan -16.709798 -5.729050 -6.605260 1.756744 -7.367343 25.671070 1.315101 0.940090 -23.812501 nan nan nan 1.897954 4.580047 1.503413 -0.516620 -1.300669 14.992411 -1.649580 1.785823 -7.539434 5.922711 26.950830 16.133566 -10.103250 20.771198 13.224872 -16.546060 -3.392387 -6.348025 -52.241418 -11.001629 3.323931 116.333256 -41.950482 -86.694734 -3.900538 -13.743051 -6.495937 13.333626 23.885899 -2.500004 68.750009 34.093519 34.019407 -150.706422 74.673332 -137.676417 6.154668 15.329873 -23.179497 
-40.411121 105.924171 89.211815 121.003460 -2.580827 87.390491 12.796867 9.407188 -11.742406 -4.618636 13.636740 21.590014 3.921524 10.934216 -12.865683 nan nan nan -16.806240 -5.806619 -6.620224 1.810049 -7.410703 25.692287 1.296630 1.023251 -23.849928 nan nan nan 1.882567 4.569357 1.460903 -0.524625 -1.269685 14.975496 -1.692545 1.739794 -7.523345 6.258504 27.066526 16.083345 -10.049367 20.740064 13.480581 -16.457313 -3.245887 -6.472229 -52.276735 -11.008916 3.376814 116.473176 -42.063334 -86.720913 -4.346432 -13.794732 -6.339933 13.324152 23.874654 -2.534331 68.772862 34.185789 34.156634 -150.734867 74.597648 -137.641977 6.044730 15.288320 -23.033192 
-40.372246 105.922684 89.189888 121.008869 -2.594072 87.343388 12.897945 9.567497 -11.643224 -4.783129 13.649487 21.537553 3.884725 10.888512 -12.869980 nan nan nan -16.890837 -5.795082 -6.574562 1.903272 -7.446931 25.718180 1.373450 1.023956 -23.859050 nan nan nan 1.863376 4.549336 1.563694 -0.505982 -1.228370 14.832373 -1.723322 1.728873 -7.516852 6.573589 27.073030 16.144604 -10.014639 20.736651 13.580805 -16.347965 -3.121435 -6.582353 -52.286897 -11.071590 3.543705 116.480799 -42.194754 -86.469655 -4.434720 -13.892384 -6.560745 13.244396 23.747643 -2.663170 69.011005 34.153245 34.380812 -150.720863 74.570074 -137.332437 5.685066 15.324741 -23.280146 
-40.320469 105.911263 89.174828 121.087004 -2.580317 87.252500 13.026652 9.662009 -11.532042 -4.947207 13.625400 21.502440 3.829372 10.890186 -12.886410 nan nan nan -16.909054 -5.749043 -6.457063 1.932257 -7.558427 25.760872 1.383468 1.000208 -23.911075 nan nan nan 1.807182 4.501865 1.748086 -0.438507 -1.221063 14.663744 -1.706060 1.735408 -7.548681 6.799554 27.127762 16.248891 -9.900068 20.717950 13.525883 -16.240347 -3.026235 -6.592004 -52.319558 -11.196314 3.713945 116.427508 -42.294864 -86.127331 -4.282815 -14.134112 -6.836663 13.125405 23.598042 -2.807947 69.310221 34.066032 34.624137 -150.598553 74.658978 -136.632123 5.064632 15.555684 -23.391028 
-40.261078 105.904373 89.165230 121.190642 -2.542970 87.127074 13.156193 9.746669 -11.391162 -5.076714 13.554202 21.470140 3.769218 10.852622 -12.968104 nan nan nan -16.860817 -5.763527 -6.302754 1.898721 -7.602736 25.820449 1.348799 0.976989 -24.024455 nan nan nan 1.752272 4.445469 1.901991 -0.349968 -1.245101 14.550731 -1.663395 1.732557 -7.503297 6.934768 27.216964 16.203074 -9.852507 20.676422 13.581633 -16.119355 -2.926067 -6.628038 -52.404145 -11.347089 3.838084 116.431836 -42.327771 -86.017026 -4.280045 -14.230931 -6.997343 13.040723 23.511961 -2.962159 69.497196 34.083734 34.847186 -150.385756 74.748218 -135.885924 4.658770 15.551555 -23.142785 
-40.215946 105.910660 89.155769 121.301878 -2.527947 87.049819 13.223036 9.794771 -11.305030 -5.185617 13.467168 21.431798 3.759787 10.778861 -13.035376 nan nan nan -16.850906 -5.780957 -6.270617 1.855328 -7.670917 25.987298 1.312373 0.928252 -24.156046 nan nan nan 1.695936 4.368235 1.941293 -0.288777 -1.294607 14.521664 -1.624202 1.709437 -7.482189 7.075653 27.302756 16.231915 -9.885402 20.639653 13.619095 -15.995408 -2.821728 -6.731726 -52.456827 -11.413223 3.909876 116.519477 -42.304985 -86.045105 -4.561393 -14.102087 -6.857409 13.045702 23.544164 -3.048473 69.537519 34.153086 35.003381 -149.996686 74.740871 -135.294039 4.800897 15.487616 -22.887310 
